<svg width="current" height="current" viewBox="0 0 34 29" fill="none" xmlns="http://www.w3.org/2000/svg">
<path d="M16.745 9.5L21.5 14.24V14C21.5 12.8065 21.0259 11.6619 20.182 10.818C19.3381 9.97411 18.1935 9.5 17 9.5H16.745ZM10.295 10.7L12.62 13.025C12.545 13.34 12.5 13.655 12.5 14C12.5 15.1935 12.9741 16.3381 13.818 17.182C14.6619 18.0259 15.8065 18.5 17 18.5C17.33 18.5 17.66 18.455 17.975 18.38L20.3 20.705C19.295 21.2 18.185 21.5 17 21.5C15.0109 21.5 13.1032 20.7098 11.6967 19.3033C10.2902 17.8968 9.5 15.9891 9.5 14C9.5 12.815 9.8 11.705 10.295 10.7ZM2 2.405L5.42 5.825L6.095 6.5C3.62 8.45 1.67 11 0.5 14C3.095 20.585 9.5 25.25 17 25.25C19.325 25.25 21.545 24.8 23.57 23.99L24.215 24.62L28.595 29L30.5 27.095L3.905 0.5M17 6.5C18.9891 6.5 20.8968 7.29018 22.3033 8.6967C23.7098 10.1032 24.5 12.0109 24.5 14C24.5 14.96 24.305 15.89 23.96 16.73L28.355 21.125C30.605 19.25 32.405 16.79 33.5 14C30.905 7.415 24.5 2.75 17 2.75C14.9 2.75 12.89 3.125 11 3.8L14.255 7.025C15.11 6.695 16.025 6.5 17 6.5Z" fill="#333333"/>
</svg>
