<svg width="current" height="current" viewBox="0 0 34 24" fill="none" xmlns="http://www.w3.org/2000/svg">
<path d="M17 7.5C15.8065 7.5 14.6619 7.97411 13.818 8.81802C12.9741 9.66193 12.5 10.8065 12.5 12C12.5 13.1935 12.9741 14.3381 13.818 15.182C14.6619 16.0259 15.8065 16.5 17 16.5C18.1935 16.5 19.3381 16.0259 20.182 15.182C21.0259 14.3381 21.5 13.1935 21.5 12C21.5 10.8065 21.0259 9.66193 20.182 8.81802C19.3381 7.97411 18.1935 7.5 17 7.5ZM17 19.5C15.0109 19.5 13.1032 18.7098 11.6967 17.3033C10.2902 15.8968 9.5 13.9891 9.5 12C9.5 10.0109 10.2902 8.10322 11.6967 6.6967C13.1032 5.29018 15.0109 4.5 17 4.5C18.9891 4.5 20.8968 5.29018 22.3033 6.6967C23.7098 8.10322 24.5 10.0109 24.5 12C24.5 13.9891 23.7098 15.8968 22.3033 17.3033C20.8968 18.7098 18.9891 19.5 17 19.5ZM17 0.75C9.5 0.75 3.095 5.415 0.5 12C3.095 18.585 9.5 23.25 17 23.25C24.5 23.25 30.905 18.585 33.5 12C30.905 5.415 24.5 0.75 17 0.75Z" fill="#333333"/>
</svg>
